<?xml version="1.0" standalone="no"?>
<!DOCTYPE svg PUBLIC "-//W3C//DTD SVG 20010904//EN"
 "http://www.w3.org/TR/2001/REC-SVG-20010904/DTD/svg10.dtd">
<svg version="1.0"
    xmlns="http://www.w3.org/2000/svg" width="50.000000pt" height="100" viewBox="0 0 225.000000 225.000000" preserveAspectRatio="xMidYMid meet">

    <g transform="translate(0.000000,225.000000) scale(0.100000,-0.100000)" fill="#000000" stroke="none">
        <path d="M271 1814 c-12 -15 -21 -31 -21 -36 0 -27 46 -80 209 -243 l181 -180
0 -46 c0 -59 21 -79 82 -79 34 0 50 -6 68 -25 l23 -24 -24 -28 c-262 -310
-392 -463 -396 -463 -2 0 -40 12 -84 26 -64 21 -83 23 -94 14 -25 -21 -17 -47
31 -95 40 -39 45 -50 39 -73 -11 -46 -8 -74 12 -94 21 -20 38 -23 91 -12 31 6
38 2 82 -41 37 -37 52 -46 69 -40 26 8 27 29 0 117 -17 58 -18 72 -7 85 21 26
467 403 477 403 21 0 41 -39 41 -83 0 -58 33 -89 92 -85 37 2 43 -3 222 -181
101 -101 189 -187 197 -192 41 -26 109 7 109 53 0 12 -65 131 -145 266 -80
134 -145 249 -145 255 0 7 7 21 15 31 21 28 19 69 -6 100 -17 21 -29 26 -65
26 -76 0 -69 20 49 131 58 55 124 127 147 162 39 58 42 66 38 120 -10 132
-134 192 -254 122 -49 -29 -184 -156 -242 -229 -38 -48 -62 -44 -62 11 0 77
-60 116 -126 83 -44 -23 -16 -36 -308 139 -141 84 -229 131 -247 131 -18 0
-35 -9 -48 -26z m384 -210 c182 -108 332 -198 334 -200 2 -2 -1 -15 -8 -28
-13 -23 -9 -46 9 -46 4 0 58 58 119 130 169 198 267 258 350 215 29 -14 61
-68 61 -102 0 -54 -89 -166 -221 -280 -59 -50 -89 -82 -86 -92 2 -9 97 -171
210 -361 154 -259 202 -348 194 -358 -5 -7 -15 -11 -21 -10 -6 2 -132 125
-279 274 l-269 271 67 58 c61 54 76 83 49 92 -5 2 -190 -150 -409 -337 -219
-187 -403 -339 -409 -337 -42 14 -27 35 252 364 l280 332 -290 289 c-214 212
-290 294 -285 306 4 9 10 16 15 16 4 0 156 -88 337 -196z m286 -64 c18 -10 28
-60 12 -60 -14 0 -73 40 -73 49 0 9 16 19 33 20 5 1 17 -4 28 -9z m-231 -255
c23 -25 23 -25 2 -25 -18 0 -42 25 -42 44 0 13 18 4 40 -19z m650 -165 c24
-24 24 -30 7 -54 -13 -17 -15 -16 -35 16 -12 20 -22 40 -22 47 0 18 28 13 50
-9z m-240 -245 c23 -25 23 -25 2 -25 -18 0 -42 25 -42 44 0 13 18 4 40 -19z
m-802 -198 c46 -12 52 -25 23 -51 -18 -17 -21 -16 -60 19 -43 39 -54 62 -23
50 9 -3 36 -11 60 -18z m199 -231 l5 -31 -43 43 -44 43 25 19 25 19 13 -30 c7
-17 16 -45 19 -63z"/>
        <path d="M1353 1653 c-25 -10 -12 -40 41 -92 58 -58 79 -61 90 -15 18 70 -62
135 -131 107z m88 -55 c6 -11 8 -22 5 -26 -7 -6 -56 37 -56 49 0 14 41 -4 51
-23z"/>
    </g>
</svg>
