<?xml version="1.0" standalone="no"?>
<!DOCTYPE svg PUBLIC "-//W3C//DTD SVG 20010904//EN"
 "http://www.w3.org/TR/2001/REC-SVG-20010904/DTD/svg10.dtd">
<svg version="1.0"
    xmlns="http://www.w3.org/2000/svg" width="212.000000pt" height="100.000000pt" viewBox="0 0 512.000000 512.000000" preserveAspectRatio="xMidYMid meet">

    <g transform="translate(0.000000,512.000000) scale(0.100000,-0.100000)" fill="#000000" stroke="none">
        <path d="M2467 5110 c-66 -17 -140 -61 -193 -116 -29 -29 -55 -62 -59 -74 -6
-18 -15 -20 -83 -20 -149 -1 -303 -52 -399 -134 l-41 -36 -409 0 c-330 0 -420
-3 -466 -15 -180 -47 -315 -182 -362 -362 -23 -86 -23 -3890 0 -3976 47 -182
180 -315 362 -362 50 -13 282 -15 1743 -15 1461 0 1693 2 1743 15 182 47 315
180 362 362 23 86 23 3890 0 3976 -47 182 -180 315 -362 362 -46 12 -136 15
-465 15 l-409 0 -52 42 c-102 81 -241 127 -387 128 l-75 1 -28 44 c-63 99
-181 165 -305 171 -42 2 -94 -1 -115 -6z m142 -200 c62 -17 100 -52 131 -116
42 -86 57 -94 182 -94 185 0 286 -35 378 -130 52 -53 88 -122 106 -197 l12
-53 -858 0 -857 0 8 45 c20 109 100 220 201 279 62 36 162 56 286 56 125 0
140 8 182 94 47 99 135 143 229 116z m-1064 -397 c-26 -62 -37 -121 -42 -214
l-6 -106 31 -34 30 -34 1001 0 1001 0 27 28 c27 27 28 31 28 135 -1 97 -12
158 -42 230 -4 11 61 12 344 10 330 -3 350 -4 393 -24 57 -27 117 -87 144
-144 l21 -45 0 -1950 0 -1950 -21 -45 c-27 -57 -87 -117 -144 -144 l-45 -21
-1705 0 -1705 0 -45 21 c-57 27 -117 87 -144 144 l-21 45 -3 1930 c-2 2108 -6
1989 54 2066 41 51 82 81 138 101 45 15 93 17 385 18 313 0 333 -1 326 -17z"/>
        <path d="M2511 4676 c-87 -48 -50 -186 49 -186 51 0 100 49 100 99 0 75 -83
124 -149 87z"/>
        <path d="M1581 3426 l-226 -225 -76 73 c-41 40 -87 76 -102 80 -66 16 -137
-55 -121 -122 4 -16 55 -76 129 -149 l122 -123 48 0 49 0 273 273 c272 272
273 273 273 316 0 60 -41 101 -101 101 -42 0 -45 -3 -268 -224z"/>
        <path d="M2524 3590 c-32 -13 -64 -59 -64 -91 0 -18 11 -41 29 -61 l29 -33
756 -3 755 -2 33 29 c27 24 33 36 33 71 0 35 -6 47 -33 71 l-32 29 -743 -1
c-408 0 -752 -4 -763 -9z"/>
        <path d="M2524 3110 c-32 -13 -64 -59 -64 -91 0 -18 11 -41 29 -61 l29 -33
341 0 341 0 27 28 c38 38 38 96 0 134 l-27 28 -328 2 c-180 1 -337 -2 -348 -7z"/>
        <path d="M3515 3087 c-25 -25 -35 -44 -35 -67 0 -23 10 -42 35 -67 31 -31 40
-35 72 -30 53 9 88 47 88 97 0 50 -35 88 -88 97 -32 5 -41 1 -72 -30z"/>
        <path d="M1165 2511 c-11 -5 -29 -19 -40 -31 -19 -21 -20 -36 -20 -301 l0
-279 28 -27 27 -28 275 -3 274 -3 33 30 33 29 0 282 0 282 -33 29 -32 29 -263
-1 c-144 0 -271 -4 -282 -8z m415 -331 l0 -140 -140 0 -140 0 0 140 0 140 140
0 140 0 0 -140z"/>
        <path d="M2524 2510 c-32 -13 -64 -59 -64 -91 0 -18 11 -41 29 -61 l29 -33
756 -3 755 -2 33 29 c27 24 33 36 33 71 0 35 -6 47 -33 71 l-32 29 -743 -1
c-408 0 -752 -4 -763 -9z"/>
        <path d="M2524 2030 c-32 -13 -64 -59 -64 -91 0 -18 11 -41 29 -61 l29 -33
341 0 341 0 27 28 c38 38 38 96 0 134 l-27 28 -328 2 c-180 1 -337 -2 -348 -7z"/>
        <path d="M3515 2007 c-25 -25 -35 -44 -35 -67 0 -23 10 -42 35 -67 31 -31 40
-35 72 -30 53 9 88 47 88 97 0 50 -35 88 -88 97 -32 5 -41 1 -72 -30z"/>
        <path d="M1165 1431 c-11 -5 -29 -19 -40 -31 -19 -21 -20 -36 -20 -301 l0
-279 28 -27 27 -28 275 -3 274 -3 33 30 33 29 0 282 0 282 -33 29 -32 29 -263
-1 c-144 0 -271 -4 -282 -8z m415 -331 l0 -140 -140 0 -140 0 0 140 0 140 140
0 140 0 0 -140z"/>
        <path d="M2524 1430 c-32 -13 -64 -59 -64 -91 0 -18 11 -41 29 -61 l29 -33
756 -3 755 -2 33 29 c27 24 33 36 33 71 0 35 -6 47 -33 71 l-32 29 -743 -1
c-408 0 -752 -4 -763 -9z"/>
        <path d="M2524 950 c-32 -13 -64 -59 -64 -91 0 -18 11 -41 29 -61 l29 -33 341
0 341 0 27 28 c38 38 38 96 0 134 l-27 28 -328 2 c-180 1 -337 -2 -348 -7z"/>
        <path d="M3515 927 c-25 -25 -35 -44 -35 -67 0 -23 10 -42 35 -67 31 -31 40
-35 72 -30 53 9 88 47 88 97 0 50 -35 88 -88 97 -32 5 -41 1 -72 -30z"/>
    </g>
</svg>
