<?xml version="1.0" standalone="no"?>
<!DOCTYPE svg PUBLIC "-//W3C//DTD SVG 20010904//EN"
 "http://www.w3.org/TR/2001/REC-SVG-20010904/DTD/svg10.dtd">
<svg version="1.0"
    xmlns="http://www.w3.org/2000/svg" width="212.000000pt" height="100.000000pt" viewBox="0 0 1000.000000 1000.000000" preserveAspectRatio="xMidYMid meet">

    <g transform="translate(0.000000,1000.000000) scale(0.100000,-0.100000)" fill="#000000" stroke="none">
        <path d="M1825 8161 c-200 -57 -357 -220 -406 -421 -12 -45 -14 -399 -14
-2000 l0 -1945 27 -81 c49 -145 154 -266 288 -334 114 -58 39 -54 1345 -60
l1210 -5 -1 -420 c0 -394 -1 -423 -20 -470 l-20 -50 -459 -5 c-448 -5 -461 -6
-500 -27 -199 -107 -208 -378 -17 -491 l47 -27 1695 0 1695 0 47 27 c90 53
138 140 138 247 -1 97 -62 194 -155 244 -39 21 -52 22 -500 27 l-459 5 -21 50
c-19 48 -20 71 -20 470 l0 420 1210 5 c1307 6 1231 2 1346 60 134 68 237 188
287 334 l27 81 0 1955 0 1955 -27 81 c-50 147 -153 266 -290 335 -126 64 130
59 -3283 58 -2915 0 -3114 -2 -3170 -18z m6316 -157 c149 -44 259 -168 289
-324 5 -29 10 -131 10 -226 l0 -174 -3440 0 -3440 0 0 180 c0 98 5 203 11 232
31 143 140 265 278 309 53 17 206 18 3147 18 2812 1 3095 0 3145 -15z m299
-2254 l0 -1370 -3440 0 -3440 0 0 1370 0 1370 3440 0 3440 0 0 -1370z m0
-1703 c0 -95 -5 -200 -11 -232 -32 -176 -173 -309 -354 -335 -96 -13 -6054
-13 -6150 0 -180 26 -322 160 -354 335 -6 32 -11 137 -11 232 l0 173 3440 0
3440 0 0 -173z m-2880 -1129 c0 -318 3 -418 15 -473 8 -38 15 -71 15 -72 0 -2
-265 -3 -590 -3 -324 0 -590 1 -590 3 0 1 7 38 15 82 11 61 14 175 15 473 l0
392 560 0 560 0 0 -402z m1100 -723 c40 -21 60 -53 60 -98 0 -48 -21 -89 -56
-107 -41 -22 -3287 -22 -3328 0 -35 18 -56 58 -56 105 0 47 14 71 53 95 31 20
66 20 1665 20 1429 0 1637 -2 1662 -15z"/>
        <path d="M6052 6790 c-143 -20 -177 -35 -500 -222 l-223 -130 -42 20 c-23 11
-152 72 -286 136 -278 133 -337 153 -396 137 -22 -6 -110 -50 -195 -99 -128
-73 -158 -95 -173 -124 -15 -31 -16 -40 -5 -74 11 -33 42 -62 226 -206 l212
-167 -67 -39 c-38 -22 -137 -79 -221 -127 l-154 -88 -251 47 c-209 40 -255 46
-276 36 -52 -24 -357 -209 -370 -224 -8 -9 -16 -37 -19 -63 -5 -49 14 -99 46
-119 153 -95 781 -452 819 -466 77 -27 199 -24 283 6 36 13 207 104 380 204
173 99 316 180 317 178 1 -1 22 -144 47 -317 27 -192 50 -328 60 -347 22 -42
69 -66 118 -59 41 6 353 180 402 225 65 61 66 66 66 503 l0 397 293 167 c466
267 480 277 523 370 82 175 -52 359 -310 425 -89 22 -221 31 -304 20z m246
-176 c193 -40 286 -150 199 -236 -19 -18 -195 -125 -393 -238 -197 -113 -371
-217 -386 -232 l-28 -26 0 -416 0 -415 -22 -26 c-25 -28 -272 -169 -275 -157
-1 4 -21 151 -43 327 -22 176 -45 337 -51 357 -11 43 -56 73 -94 64 -13 -3
-189 -101 -392 -218 -361 -207 -443 -248 -501 -248 -51 0 -101 24 -352 170
-135 78 -293 170 -352 203 -59 34 -108 64 -108 67 1 12 240 140 262 140 13 0
125 -20 249 -45 123 -25 234 -43 247 -40 35 8 594 334 615 357 20 24 23 77 5
100 -7 9 -112 91 -233 183 -121 92 -221 170 -222 173 -5 14 195 112 229 112
22 0 134 -48 338 -146 168 -80 317 -148 332 -151 22 -4 77 23 284 142 141 82
273 156 293 166 96 46 267 60 399 33z"/>
        <path d="M4206 201 c-4 -7 -5 -15 -2 -18 9 -9 19 4 14 18 -4 11 -6 11 -12 0z"/>
        <path d="M4290 206 c0 -3 5 -17 12 -31 8 -18 14 -22 20 -13 4 7 7 20 7 28 0
10 -3 8 -9 -5 -7 -16 -9 -17 -9 -3 -1 15 -21 38 -21 24z"/>
        <path d="M4351 194 c0 -11 3 -14 6 -6 3 7 2 16 -1 19 -3 4 -6 -2 -5 -13z"/>
        <path d="M4386 190 c3 -14 10 -29 15 -34 14 -16 10 6 -7 34 l-15 25 7 -25z"/>
        <path d="M4411 194 c0 -11 3 -14 6 -6 3 7 2 16 -1 19 -3 4 -6 -2 -5 -13z"/>
        <path d="M4474 180 c1 -24 36 -44 36 -21 0 6 -6 8 -14 5 -10 -4 -16 3 -19 18
-4 22 -4 21 -3 -2z"/>
        <path d="M4588 203 c6 -2 18 -2 25 0 6 3 1 5 -13 5 -14 0 -19 -2 -12 -5z"/>
        <path d="M4641 178 c2 -30 2 -31 6 -5 2 15 9 27 15 27 5 0 8 -6 5 -14 -3 -8 2
-20 11 -28 13 -11 14 -11 7 2 -5 8 -10 22 -10 30 0 8 -8 16 -17 18 -15 3 -18
-3 -17 -30z"/>
        <path d="M4731 190 c14 -31 19 -36 19 -24 0 6 -7 19 -16 30 -14 18 -14 18 -3
-6z"/>
        <path d="M4776 201 c-4 -5 3 -7 14 -4 23 6 26 13 6 13 -8 0 -17 -4 -20 -9z"/>
        <path d="M4840 206 c0 -2 9 -6 20 -9 11 -3 18 -1 14 4 -5 9 -34 13 -34 5z"/>
        <path d="M4966 201 c-3 -5 3 -7 14 -4 16 4 20 0 20 -17 0 -18 -4 -21 -21 -17
-16 4 -19 3 -11 -5 17 -17 44 -1 40 24 -3 24 -32 36 -42 19z"/>
        <path d="M5031 178 c2 -30 2 -31 6 -5 2 15 9 27 15 27 5 0 8 -6 5 -14 -3 -8 2
-20 11 -28 13 -11 14 -11 7 2 -5 8 -10 22 -10 30 0 8 -8 16 -17 18 -15 3 -18
-3 -17 -30z"/>
        <path d="M5095 180 c0 -16 3 -30 8 -30 4 0 7 14 7 30 0 17 -3 30 -7 30 -5 0
-8 -13 -8 -30z"/>
        <path d="M5140 200 c0 -5 5 -10 11 -10 5 0 7 5 4 10 -3 6 -8 10 -11 10 -2 0
-4 -4 -4 -10z"/>
        <path d="M5216 201 c-4 -5 3 -7 14 -4 23 6 26 13 6 13 -8 0 -17 -4 -20 -9z"/>
        <path d="M5288 203 c7 -3 16 -2 19 1 4 3 -2 6 -13 5 -11 0 -14 -3 -6 -6z"/>
        <path d="M5340 189 c-7 -11 -10 -23 -7 -25 2 -2 9 7 15 21 14 30 7 33 -8 4z"/>
        <path d="M5406 201 c-4 -5 3 -7 14 -4 23 6 26 13 6 13 -8 0 -17 -4 -20 -9z"/>
        <path d="M5478 203 c7 -3 16 -2 19 1 4 3 -2 6 -13 5 -11 0 -14 -3 -6 -6z"/>
        <path d="M5538 203 c6 -2 18 -2 25 0 6 3 1 5 -13 5 -14 0 -19 -2 -12 -5z"/>
        <path d="M5636 201 c-4 -5 3 -7 14 -4 23 6 26 13 6 13 -8 0 -17 -4 -20 -9z"/>
        <path d="M5694 195 c-13 -32 23 -63 40 -36 4 5 -3 7 -14 4 -16 -4 -20 0 -20
17 0 17 4 21 20 17 11 -3 18 -1 14 4 -8 14 -34 11 -40 -6z"/>
        <path d="M5760 178 c0 -36 4 -35 14 5 4 16 2 27 -4 27 -5 0 -10 -14 -10 -32z"/>
        <path d="M5791 187 c-13 -21 -12 -21 5 -5 10 10 16 20 13 22 -3 3 -11 -5 -18
-17z"/>
        <path d="M4180 178 c0 -9 5 -20 10 -23 13 -8 13 5 0 25 -8 13 -10 13 -10 -2z"/>
        <path d="M4226 174 c-4 -9 -4 -19 -1 -22 2 -3 7 3 11 12 4 9 4 19 1 22 -2 3
-7 -3 -11 -12z"/>
        <path d="M4707 171 c-4 -17 -3 -21 5 -13 5 5 8 16 6 23 -3 8 -7 3 -11 -10z"/>
        <path d="M5360 176 c0 -8 4 -17 9 -20 5 -4 7 3 4 14 -6 23 -13 26 -13 6z"/>
        <path d="M5478 183 c7 -3 16 -2 19 1 4 3 -2 6 -13 5 -11 0 -14 -3 -6 -6z"/>
        <path d="M4270 166 c0 -9 5 -16 10 -16 6 0 10 4 10 9 0 6 -4 13 -10 16 -5 3
-10 -1 -10 -9z"/>
        <path d="M4367 173 c-4 -3 -7 -11 -7 -17 0 -6 5 -5 12 2 6 6 9 14 7 17 -3 3
-9 2 -12 -2z"/>
        <path d="M5166 167 c3 -10 9 -15 12 -12 3 3 0 11 -7 18 -10 9 -11 8 -5 -6z"/>
        <path d="M5246 168 c5 -8 0 -9 -16 -5 -16 4 -20 3 -12 -5 6 -6 18 -8 26 -5 18
7 22 27 5 27 -5 0 -7 -5 -3 -12z"/>
        <path d="M5436 168 c5 -8 0 -9 -16 -5 -16 4 -20 3 -12 -5 6 -6 18 -8 26 -5 18
7 22 27 5 27 -5 0 -7 -5 -3 -12z"/>
        <path d="M5555 171 c3 -5 -2 -12 -10 -14 -12 -4 -12 -5 1 -3 19 1 32 26 14 26
-6 0 -9 -4 -5 -9z"/>
        <path d="M4778 158 c5 -5 16 -8 23 -6 8 3 3 7 -10 11 -17 4 -21 3 -13 -5z"/>
        <path d="M4855 160 c-16 -7 -17 -9 -3 -9 9 -1 20 4 23 9 7 11 7 11 -20 0z"/>
        <path d="M5638 158 c5 -5 16 -8 23 -6 8 3 3 7 -10 11 -17 4 -21 3 -13 -5z"/>
        <path d="M4548 153 c7 -3 16 -2 19 1 4 3 -2 6 -13 5 -11 0 -14 -3 -6 -6z"/>
        <path d="M4918 153 c7 -3 16 -2 19 1 4 3 -2 6 -13 5 -11 0 -14 -3 -6 -6z"/>
        <path d="M5478 153 c7 -3 16 -2 19 1 4 3 -2 6 -13 5 -11 0 -14 -3 -6 -6z"/>
    </g>
</svg>
